<svg xmlns="http://www.w3.org/2000/svg" width="560" height="460" viewBox="0 0 560 460">
  <rect width="560" height="460" fill="#1a1a2e"/>
  <text x="280" y="28" text-anchor="middle" font-family="Arial, sans-serif" font-size="16" font-weight="bold" fill="#ffffff">ROC Curve — XGBoost vs Logistic Regression Baseline</text>
  <text x="280" y="46" text-anchor="middle" font-family="Arial, sans-serif" font-size="11" fill="#aaaaaa">Student Retention Risk Model | HESA UK Cohort Data | Stratified 5-Fold CV</text>
  <rect x="100" y="50" width="360" height="360" fill="#16213e" rx="2"/>
  <line x1="100.0" y1="50.0" x2="100.0" y2="410.0" stroke="#2a2a4a" stroke-width="1"/>
  <line x1="172.0" y1="50.0" x2="172.0" y2="410.0" stroke="#2a2a4a" stroke-width="1"/>
  <line x1="244.0" y1="50.0" x2="244.0" y2="410.0" stroke="#2a2a4a" stroke-width="1"/>
  <line x1="316.0" y1="50.0" x2="316.0" y2="410.0" stroke="#2a2a4a" stroke-width="1"/>
  <line x1="388.0" y1="50.0" x2="388.0" y2="410.0" stroke="#2a2a4a" stroke-width="1"/>
  <line x1="460.0" y1="50.0" x2="460.0" y2="410.0" stroke="#2a2a4a" stroke-width="1"/>
  <line x1="100" y1="400.0" x2="460.0" y2="400.0" stroke="#2a2a4a" stroke-width="1"/>
  <line x1="100" y1="328.0" x2="460.0" y2="328.0" stroke="#2a2a4a" stroke-width="1"/>
  <line x1="100" y1="256.0" x2="460.0" y2="256.0" stroke="#2a2a4a" stroke-width="1"/>
  <line x1="100" y1="184.0" x2="460.0" y2="184.0" stroke="#2a2a4a" stroke-width="1"/>
  <line x1="100" y1="112.0" x2="460.0" y2="112.0" stroke="#2a2a4a" stroke-width="1"/>
  <line x1="100" y1="40.0" x2="460.0" y2="40.0" stroke="#2a2a4a" stroke-width="1"/>
  <polyline points="100,400 460,40" stroke="#555577" stroke-width="1.5" stroke-dasharray="6,4" fill="none"/>
  <polyline points="100.0,400.0 109.0,287.0 118.0,259.5 127.0,240.4 136.0,225.3 145.0,212.6 154.0,201.6 163.0,191.8 172.0,182.8 181.0,174.7 190.0,167.1 199.0,160.0 208.0,153.3 217.0,147.1 226.0,141.1 235.0,135.4 244.0,130.0 253.0,124.8 262.0,119.9 271.0,115.1 280.0,110.4 289.0,106.0 298.0,101.6 307.0,97.4 316.0,93.4 325.0,89.4 334.0,85.6 343.0,81.8 352.0,78.1 361.0,74.6 370.0,71.1 379.0,67.7 388.0,64.4 397.0,61.1 406.0,57.9 415.0,54.8 424.0,51.7 433.0,48.7 442.0,45.8 451.0,42.9 460.0,40.0" stroke="#4dabf7" stroke-width="2" stroke-dasharray="7,3" fill="none"/>
  <polyline points="100.0,400.0 109.0,215.1 118.0,190.5 127.0,174.5 136.0,162.5 145.0,152.7 154.0,144.5 163.0,137.2 172.0,130.8 181.0,125.0 190.0,119.7 199.0,114.9 208.0,110.4 217.0,106.1 226.0,102.2 235.0,98.5 244.0,94.9 253.0,91.6 262.0,88.4 271.0,85.3 280.0,82.4 289.0,79.6 298.0,76.9 307.0,74.2 316.0,71.7 325.0,69.3 334.0,67.0 343.0,64.7 352.0,62.5 361.0,60.3 370.0,58.2 379.0,56.2 388.0,54.2 397.0,52.3 406.0,50.4 415.0,48.6 424.0,46.8 433.0,45.0 442.0,43.3 451.0,41.6 460.0,40.0" stroke="#ff9f43" stroke-width="2.5" fill="none"/>
  <text x="100.0" y="428" text-anchor="middle" font-family="Arial, sans-serif" font-size="11" fill="#aaaaaa">0.0</text>
  <text x="172.0" y="428" text-anchor="middle" font-family="Arial, sans-serif" font-size="11" fill="#aaaaaa">0.2</text>
  <text x="244.0" y="428" text-anchor="middle" font-family="Arial, sans-serif" font-size="11" fill="#aaaaaa">0.4</text>
  <text x="316.0" y="428" text-anchor="middle" font-family="Arial, sans-serif" font-size="11" fill="#aaaaaa">0.6</text>
  <text x="388.0" y="428" text-anchor="middle" font-family="Arial, sans-serif" font-size="11" fill="#aaaaaa">0.8</text>
  <text x="460.0" y="428" text-anchor="middle" font-family="Arial, sans-serif" font-size="11" fill="#aaaaaa">1.0</text>
  <text x="92" y="404.0" text-anchor="end" font-family="Arial, sans-serif" font-size="11" fill="#aaaaaa">0.0</text>
  <text x="92" y="332.0" text-anchor="end" font-family="Arial, sans-serif" font-size="11" fill="#aaaaaa">0.2</text>
  <text x="92" y="260.0" text-anchor="end" font-family="Arial, sans-serif" font-size="11" fill="#aaaaaa">0.4</text>
  <text x="92" y="188.0" text-anchor="end" font-family="Arial, sans-serif" font-size="11" fill="#aaaaaa">0.6</text>
  <text x="92" y="116.0" text-anchor="end" font-family="Arial, sans-serif" font-size="11" fill="#aaaaaa">0.8</text>
  <text x="92" y="44.0" text-anchor="end" font-family="Arial, sans-serif" font-size="11" fill="#aaaaaa">1.0</text>
  <text x="280" y="446" text-anchor="middle" font-family="Arial, sans-serif" font-size="13" fill="#cccccc">False Positive Rate</text>
  <text x="18" y="230" text-anchor="middle" font-family="Arial, sans-serif" font-size="13" fill="#cccccc" transform="rotate(-90, 18, 230)">True Positive Rate</text>
  <rect x="240" y="60" width="215" height="70" fill="#0f0f23" rx="4" opacity="0.9"/>
  <line x1="250" y1="78" x2="275" y2="78" stroke="#ff9f43" stroke-width="2.5"/>
  <text x="282" y="82" font-family="Arial, sans-serif" font-size="12" fill="#ff9f43">XGBoost  AUC = 0.847</text>
  <line x1="250" y1="98" x2="275" y2="98" stroke="#4dabf7" stroke-width="2" stroke-dasharray="7,3"/>
  <text x="282" y="102" font-family="Arial, sans-serif" font-size="12" fill="#4dabf7">Log. Reg.  AUC = 0.761</text>
  <line x1="250" y1="118" x2="275" y2="118" stroke="#555577" stroke-width="1.5" stroke-dasharray="6,4"/>
  <text x="282" y="122" font-family="Arial, sans-serif" font-size="12" fill="#888888">Random chance</text>
</svg>
